<?xml version="1.0" encoding="utf-8"?>
<svg version="1.1" id="Layer_1" xmlns="http://www.w3.org/2000/svg" xmlns:xlink="http://www.w3.org/1999/xlink" x="0px" y="0px"
	 viewBox="-157.9 -854 2499.9 2500" enable-background="new -157.9 -854 2499.9 2500" xml:space="preserve">
<path d="M498.8-822.7c-31.7,20.8-47.8,48.1-47.8,81.1v2269c0,28.8,16.5,54.9,49.5,79.2c32.8,24.3,73.1,36.4,121.3,36.4
	c46.1,0,86.4-12.1,121.5-36.4c34.9-24,52.6-50.4,52.6-79.2V-741.4c0-33.2-16.9-60-50.9-81.3c-34-20.6-75-31.3-123.2-31.3
	C571.5-854,530.5-843.4,498.8-822.7L498.8-822.7z M1491.1,78.5L1029.3,368c-20.7,19.4-29.6,48.8-25.8,89
	c3.6,39.8,22,77.7,54.5,113.5c32.7,36,69.3,58.5,111.1,68.1c41.2,9.3,72.5,4.2,93.2-14.9L1445,509.7v1017.7
	c0,28.8,15.9,54.9,48,79.2c31.3,24.3,71.5,36.4,119.6,36.4c48.2,0,89.8-12.1,124.7-36.4c35.1-24.3,52.6-50.4,52.6-79.2V159.2
	c0-33.2-17.1-60-50.9-80.7c-33.8-21.1-75.9-31.3-126.4-31.3C1562.3,47.2,1521.9,57.5,1491.1,78.5L1491.1,78.5z"/>
</svg>
